# xmcd
#
# Track frame offsets:
#	150
#	14480
#	27510
#	43767
#	60335
#	74932
#	85225
#	97015
#	111732
#	128225
#	145182
#	162690
#	179790
#	193480
#	213452
#	234240
#	250155
#	265102
#	278870
#
# Disc length: 3906 seconds
#
# Revision: 0
# Processed by: cddbd v1.5.2PL0 Copyright (c) Steve Scherf et al.
# Submitted via: dBpowerAMP V4.0
#
DISCID=340f4013
DTITLE=Various Artist - The All Time Greatest Country Songs (from the 60's, 70's, 80's and 90's) Disk 2
DYEAR=1999
DGENRE=Country
TTITLE0=John Denver - Country Roads
TTITLE1=Tanya Tucker - Delta Dawn
TTITLE2=Charlie Daniels Band - The Devil Went Down To Georgia
TTITLE3=Joan Baez - The Night They Drove Ol' Dixie Down
TTITLE4=Bellamy Brothers - Let Your Love Flow
TTITLE5=Kris Kristofferon - Help Me Make It Through the Night
TTITLE6=Johnny Paycheck - Take This Job And Shove It
TTITLE7=Dan Fogelberg - Longer
TTITLE8=Gram Parsons and Emmylou Harris - Love Hurts
TTITLE9=J.D.Souther - You're Only Lonely
TTITLE10=Linda Ronstadt - Blue Bayou
TTITLE11=Rodney Crowell - Voila! An American Dream
TTITLE12=Waylon Jennings, Willie Nelson, Johnny Cash, Kris Kristofferson - Highwayman
TTITLE13=Arlo Guthrie - City Of New Orleans
TTITLE14=k.d.Lang - Constant Craving
TTITLE15=Willie Nelson - Always On My Mind
TTITLE16=Mary Chapin Carpenter - Passionate Kiss
TTITLE17=Dwight Yoakam - Little Sister
TTITLE18=Dixie Chicks - There's Your Trouble
EXTD=
EXTT0=
EXTT1=
EXTT2=
EXTT3=
EXTT4=
EXTT5=
EXTT6=
EXTT7=
EXTT8=
EXTT9=
EXTT10=
EXTT11=
EXTT12=
EXTT13=
EXTT14=
EXTT15=
EXTT16=
EXTT17=
EXTT18=
PLAYORDER=
